<?xml version="1.0" encoding="UTF-8" standalone="no"?>
<!-- Created with Inkscape (http://www.inkscape.org/) -->

<svg
   width="16"
   height="16"
   viewBox="0 0 4.2333331 4.2333336"
   version="1.1"
   id="svg5"
   inkscape:version="1.1.1 (3bf5ae0d25, 2021-09-20)"
   sodipodi:docname="exit.svg"
   xmlns:inkscape="http://www.inkscape.org/namespaces/inkscape"
   xmlns:sodipodi="http://sodipodi.sourceforge.net/DTD/sodipodi-0.dtd"
   xmlns="http://www.w3.org/2000/svg"
   xmlns:svg="http://www.w3.org/2000/svg">
  <sodipodi:namedview
     id="namedview7"
     pagecolor="#000000"
     bordercolor="#666666"
     borderopacity="1.0"
     inkscape:pageshadow="2"
     inkscape:pageopacity="0"
     inkscape:pagecheckerboard="0"
     inkscape:document-units="px"
     showgrid="false"
     units="px"
     fit-margin-top="6"
     fit-margin-left="6"
     fit-margin-right="6"
     fit-margin-bottom="6"
     inkscape:zoom="27.173968"
     inkscape:cx="8.7399823"
     inkscape:cy="12.879974"
     inkscape:window-width="1920"
     inkscape:window-height="1131"
     inkscape:window-x="0"
     inkscape:window-y="32"
     inkscape:window-maximized="1"
     inkscape:current-layer="layer1"
     showguides="false"
     width="16px"
     inkscape:snap-global="false" />
  <defs
     id="defs2" />
  <g
     inkscape:label="Calque 1"
     inkscape:groupmode="layer"
     id="layer1"
     transform="translate(-55.895166,-105.12935)">
    <path
       style="fill:#ffffff;stroke-width:0.00777158"
       d="m 56.730396,109.36268 v -0.36455 -0.36454 l -0.272861,0.004 -0.272862,0.004 0.0054,-0.0447 c 0.03292,-0.27597 0.231556,-0.48006 0.492296,-0.50586 l 0.05199,-0.004 -0.0015,-1.47484 -0.0015,-1.47483 h 1.058371 c 0.582147,0 1.28137,-0.001 1.553826,-0.004 l 0.495377,-0.004 v 0.85237 0.85236 l -0.235062,-3.5e-4 c -0.165828,-2.5e-4 -0.241264,-0.003 -0.256127,-0.01 -0.02085,-0.01 -0.122665,-0.1274 -0.383538,-0.44522 -0.151842,-0.18493 -0.183343,-0.21646 -0.228596,-0.22866 -0.02237,-0.007 -0.214166,-0.008 -0.643457,-0.007 -0.69451,0.003 -0.655347,-7.4e-4 -0.718173,0.0667 -0.03189,0.0344 -0.367085,0.58537 -0.392742,0.64573 -0.01728,0.0408 -0.01548,0.107 0.0039,0.14465 0.04116,0.0797 0.132113,0.12054 0.216049,0.0971 0.06461,-0.018 0.09119,-0.053 0.237076,-0.31079 0.07378,-0.13043 0.139983,-0.24539 0.147134,-0.25559 l 0.01293,-0.0185 0.189559,0.001 c 0.10427,8.3e-4 0.190715,0.003 0.192128,0.004 0.0014,10e-4 -0.06895,0.15599 -0.156361,0.34344 -0.092,0.19732 -0.164079,0.36216 -0.171154,0.39141 -0.01875,0.0774 -0.02635,0.1619 -0.04797,0.53242 -0.01564,0.26859 -0.02251,0.34587 -0.03184,0.36015 l -0.01197,0.0182 -0.452014,-0.001 -0.452012,-10e-4 -0.05903,0.0204 c -0.08525,0.0293 -0.144931,0.0673 -0.2034,0.12933 -0.06328,0.0671 -0.106261,0.15087 -0.11245,0.2192 l -0.004,0.0465 0.784002,-0.003 c 0.882265,-0.003 0.833654,4.9e-4 0.900724,-0.0614 0.05564,-0.0513 0.05582,-0.0524 0.08163,-0.53533 0.01261,-0.23723 0.02325,-0.43486 0.02352,-0.43913 2.45e-4,-0.004 0.163898,0.32103 0.363674,0.72289 0.199775,0.40187 0.377461,0.75165 0.394859,0.77727 0.03989,0.0587 0.09427,0.10919 0.141099,0.13075 0.03386,0.016 0.05039,0.017 0.243974,0.0191 l 0.207641,0.003 -0.01854,-0.0415 c -0.01017,-0.0228 -0.211144,-0.42949 -0.446537,-0.90401 -0.243708,-0.49127 -0.428009,-0.87174 -0.428038,-0.88364 -3.3e-5,-0.0112 0.04918,-0.12342 0.109335,-0.24872 0.06016,-0.12532 0.123494,-0.2582 0.140749,-0.2953 l 0.03136,-0.0675 0.170903,0.20197 c 0.094,0.11112 0.185129,0.21143 0.202517,0.22293 l 0.03161,0.0209 0.313349,10e-4 0.313349,0.001 v 1.07811 1.0781 z m 2.092068,-3.32324 c 0.153709,-0.0517 0.24689,-0.18528 0.24689,-0.35364 0,-0.15742 -0.09007,-0.29202 -0.231371,-0.34568 -0.05654,-0.0215 -0.162651,-0.0288 -0.220247,-0.0143 -0.234993,0.0559 -0.353375,0.31221 -0.245192,0.53109 0.04472,0.0905 0.118164,0.1539 0.21346,0.18438 0.06389,0.0205 0.174015,0.0199 0.23646,-0.001 z"
       id="path447"
       sodipodi:nodetypes="ccccccccccscccccccccccccccccccccccccccccccccccccccccccccccccccccscccccc" />
  </g>
</svg>
