<svg width="512" height="512" version="1.1" viewBox="0 0 135 135" xmlns="http://www.w3.org/2000/svg"><g transform="translate(-63.7 -104)"><path d="m73.6 104h115c5.53 0 9.99 4.45 9.99 9.99v115c0 5.53-4.45 9.99-9.99 9.99h-115c-5.53 0-9.99-4.45-9.99-9.99v-115c0-5.53 4.45-9.99 9.99-9.99z" fill="#292654" stroke-width=".271"/><g fill="#ac9393"><path d="m124 231c-2.06-0.0798-3.98-0.241-4.27-0.358-1.18-0.471-1.51-1.87-0.806-3.51 0.899-2.1 2.59-3.19 6.54-4.23 2.45-0.645 2.59-0.71 2.78-1.29 0.161-0.488 0.591-5.34 0.603-6.82 2e-3 -0.302 0.205-0.354 1.38-0.354 1.3 0 1.4-0.033 1.62-0.531 0.133-0.292 0.216-0.554 0.184-0.582-0.0319-0.0277-0.967-0.203-2.08-0.39-3.83-0.644-5.81-1.59-7.16-3.44-0.638-0.869-0.796-1.32-1.11-3.13-0.317-1.82-0.351-2.78-0.24-6.87 0.0711-2.61 0.256-5.8 0.411-7.07 0.609-5.01 2-10 4.56-16.4 0.571-1.43 1.06-2.91 1.08-3.29 0.039-0.649-0.0195-0.716-0.969-1.12-2.53-1.08-5.58-3.49-6.38-5.06l-0.393-0.759 1.53-1.85c1.84-2.22 2.28-2.97 1.88-3.22-0.149-0.0947-0.332-0.174-0.405-0.175-0.0736-2e-3 -0.997 0.983-2.05 2.19-2.3 2.63-4 3.9-6.48 4.83-3.87 1.46-9.54 2.42-12.7 2.17-3.03-0.238-6.35-1.7-8.46-3.71-2.68-2.56-4.35-5.21-5.72-9.06-1.21-3.41-1.34-4.92-0.595-6.69 3.06-7.25 10.3-11.8 21.1-13.3 1.53-0.203 2.49-0.228 3.43-0.0917 0.722 0.104 1.38 0.192 1.46 0.194 0.0834 2e-3 0.152 0.327 0.152 0.723 0 2.62 1.88 5.66 4.2 6.8 1.14 0.56 1.55 0.659 2.64 0.631 2.41-0.0607 3.86-0.946 5.53-3.38 0.677-0.988 0.831-1.4 0.914-2.44l0.101-1.25-1.69-0.829c-4.2-2.06-8.4-2.95-13.6-2.9-6.37 0.0674-12 1.4-17.2 4.06-2.95 1.5-4.38 2.55-6.28 4.58-0.785 0.841-1.43 1.39-1.43 1.22 0-1.26 3.98-12.5 5.71-16.1 1.94-4.05 5.43-9.67 7.28-11.7 1.8-1.99 3.62-2.82 6.23-2.83 1.82-3e-3 2.9 0.229 5.71 1.22 3.62 1.29 6.27 2.99 8.61 5.54 2.53 2.75 4.51 5.23 6.34 7.91 1.4 2.05 1.82 2.5 2.36 2.5 0.344 0 0.189-1.02-0.305-1.99-0.731-1.44-5.76-7.88-7.88-10.1l-1.02-1.07 0.604-0.513c1.15-0.977 4.64-2.52 6.41-2.84 5.03-0.9 12.1-0.059 18.4 2.19 1.37 0.489 1.43 0.711 0.567 2.12-1.19 1.94-1.98 5.48-1.46 6.47 0.218 0.407 1.97 1.01 2.22 0.765 0.144-0.144 0.811 3.16 0.829 4.1 0.0175 0.949-0.354 1.71-1.9 3.88-2.26 3.19-2.43 3.6-2.43 5.96-1.7e-4 2.35 0.322 3.48 1.52 5.33 1.23 1.9 2.27 2.77 4.74 3.97 2.63 1.27 4.58 1.76 7.08 1.76 2.08 2e-3 4.52-0.623 6.73-1.72 1.46-0.726 3.46-2.57 4.39-4.03 0.359-0.569 0.754-0.959 0.971-0.96 0.202-2.1e-4 0.883 0.237 1.52 0.526 2.75 1.26 5.08 1.94 7.61 2.22 2.05 0.225 5.74 0.105 6.35-0.208 0.284-0.144 0.718-0.325 0.965-0.401 0.428-0.132 0.438-0.109 0.22 0.53-0.289 0.846-2.3 4.22-3.77 6.33-1.33 1.91-4.68 5.76-6.51 7.48-4.36 4.12-9.82 7.93-14.5 10.1-2.96 1.38-3.9 1.58-7.34 1.56-2.49-0.0144-2.99 0.0329-3.09 0.291-0.0651 0.17-0.0877 0.339-0.0503 0.377 0.0374 0.0374 1.06 0.213 2.28 0.39 1.22 0.177 2.44 0.385 2.71 0.463 0.559 0.156 0.611 0.345 1.01 3.67 0.411 3.41 1.13 5.67 2.44 7.71 0.888 1.38 2.09 4.13 2.52 5.75 0.428 1.63 0.768 7.18 0.602 9.85-0.165 2.66-0.488 4.01-1.41 5.88-1.54 3.13-3.51 4.51-7.81 5.46-1.27 0.28-2.94 0.681-3.72 0.892-0.778 0.211-1.95 0.444-2.6 0.519-0.859 0.0983-1.32 0.268-1.67 0.614-0.458 0.458-0.478 0.598-0.477 3.37 5.8e-4 1.59 0.0922 3.22 0.204 3.62 0.202 0.728 0.203 0.729 1.6 0.858 1.93 0.179 8.87 1.63 10.8 2.26 2.02 0.651 2.53 1.15 2.53 2.51 0 0.674-0.173 1.31-0.561 2.05-0.661 1.27-1.68 1.89-3.58 2.21-1.37 0.225-24.1 0.217-30-0.0109zm15.1-23c0.433-0.318 0.984-0.796 1.22-1.06 0.61-0.674 1.08-2.43 1.08-4.03v-1.36l0.643 0.601c0.823 0.769 1.86 1.29 2.91 1.47 1.55 0.259 3.96-1.29 4.5-2.9 0.646-1.94 0.175-3-2.56-5.76-0.94-0.951-1.69-1.89-1.77-2.23-0.196-0.78 0.161-2.44 1.24-5.76 1.18-3.63 1.37-4.87 1.2-7.53-0.0778-1.19-0.205-2.17-0.283-2.17-0.0777 0-0.318 0.129-0.534 0.287-0.353 0.258-0.395 0.564-0.416 3.08-0.0233 2.76-0.0356 2.83-0.937 5.46-0.502 1.47-1.08 3.48-1.28 4.47-0.495 2.45-0.303 3.02 1.72 5.06 2.19 2.22 2.44 2.58 2.44 3.6 0 0.742-0.125 1.01-0.824 1.77-0.91 0.988-1.9 1.42-2.8 1.22-0.338-0.0742-1.21-0.725-2.05-1.53-0.804-0.771-1.58-1.4-1.72-1.4-0.633 0-0.89 0.863-0.902 3.02-7e-3 1.17-0.12 2.44-0.253 2.81-0.503 1.43-2.69 2.47-3.88 1.84-0.635-0.34-0.754-0.972-0.739-3.92 7e-3 -1.34-0.077-2.78-0.186-3.2-0.273-1.04-0.81-1.13-3.14-0.571-1.58 0.381-1.99 0.415-2.6 0.215-1.35-0.444-1.62-1.68-0.701-3.19 0.515-0.847 2.85-2.16 4.74-2.67 1.99-0.533 2.24-0.673 2.66-1.47 0.303-0.575 0.353-1.7 0.431-9.69 0.0544-5.53 0.0158-9.04-0.0996-9.04-0.104 0-0.344 0.114-0.533 0.253-0.303 0.222-0.38 1.11-0.639 7.42-0.292 7.14-0.449 9.69-0.635 10.3-0.0651 0.231-0.678 0.52-1.85 0.875-4.72 1.43-7.03 4.3-5.69 7.07 0.762 1.57 2.42 2.05 4.84 1.4 1.89-0.508 1.77-0.67 1.85 2.47 0.0582 2.2 0.153 2.94 0.451 3.54 0.539 1.1 1.72 1.7 3.37 1.74 0.725 0.0157 1.1-0.107 1.72-0.559zm31-49.5c1.61-0.561 1.12-2-0.681-2-1.06 0-1.52 0.306-1.52 1.03 0 0.494 0.124 0.663 0.657 0.894 0.809 0.352 0.762 0.349 1.54 0.0779zm-29-23.6c0.62-0.639 1.67-1.89 2.34-2.78 0.668-0.891 1.36-1.74 1.53-1.88 0.848-0.704 0.532-3.05-0.467-3.47-1.14-0.474-2.12 0.462-4 3.83-1.3 2.32-1.85 4.15-1.5 4.94 0.361 0.793 0.854 0.643 2.09-0.636z" style="paint-order:stroke fill markers"/><path d="m105 207c-1.26-0.795-1.62-1.47-2.51-4.61-1.21-4.29-2.39-5.81-4.74-6.14-1.61-0.226-4.26 0.417-6.61 1.6-0.924 0.467-3.12 1.45-4.88 2.18-2.95 1.23-3.39 1.33-5.63 1.33-2.19 2e-3 -2.64-0.0971-4.57-1.01-4.13-1.95-6.01-5.44-6.03-11.3-0.0098-2.76 0.39-4.54 1.53-6.85 1.65-3.32 4.63-6.08 8.38-7.74 3.72-1.65 9.5-0.316 11.2 2.58 1.3 2.2 1.94 5.98 1.46 8.56-0.664 3.56-3.5 7.31-5.54 7.31-0.777 0-1.14-0.189-1.63-0.857-0.853-1.15-1.43-1.08-2.65 0.337-1.41 1.65-2.39 2.23-3.77 2.23-4.62 8e-3 -5.09-8.08-0.708-12.2 1.35-1.27 3.03-2.05 4.48-2.06 1.5-8e-3 3.3 1.45 3.98 3.23 0.425 1.11 0.43 1.45 0.0471 3.64-0.33 1.89-0.349 2.57-0.0865 3.13 1.03 2.2 3.61-0.389 4.61-4.63 0.844-3.58 0.42-5.82-1.5-7.96-2.2-2.44-4.26-3.1-7.55-2.41-2.45 0.511-4.54 1.69-6.99 3.97-3.25 3.01-4.76 7.47-4.12 12.2 0.41 3.03 1.58 5.59 2.99 6.54 3.23 2.17 7.19 2.35 11.2 0.511 1.25-0.579 3.59-1.83 5.2-2.78 4.16-2.46 5.42-2.9 7.25-2.51 2.39 0.513 3.89 2.26 5.41 6.32 0.725 1.94 1.68 2.79 3.12 2.79 0.573 0 3.34-0.77 6.16-1.71 2.81-0.941 5.14-1.68 5.17-1.64 0.0321 0.0372 0.105 1.48 0.163 3.21l0.105 3.14-3.71 0.938c-2.04 0.516-4.74 1.01-6 1.09-1.97 0.133-2.41 0.075-3.2-0.423zm-23.4-15c1.39-1.49 2.76-4.15 3.38-6.55 0.533-2.07 0.337-2.52-1.36-3.17-1.06-0.405-1.43-0.428-2.31-0.137-3.83 1.26-6.12 6.96-4.12 10.3 0.48 0.789 0.687 0.887 1.88 0.887 1.22 0 1.45-0.115 2.53-1.28z" style="paint-order:stroke fill markers"/><path d="m160 227c0.0668-1.55-8e-3 -1.83-0.663-2.48-0.904-0.904-4.64-2.04-10.4-3.18l-4.11-0.807-7e-5 -2.82c-5e-5 -2.42 0.0618-2.79 0.441-2.65 0.242 0.0931 1.42-0.0985 2.61-0.426 2.49-0.684 2.51-0.673 2.8 1.61 0.125 1 0.393 1.68 0.813 2.07 1.01 0.926 2.95 1.78 4.41 1.94 6.65 0.745 8.05 1.16 9.88 2.93 1.2 1.16 1.91 2.55 1.91 3.78 0 1.08-1.07 1.44-4.79 1.63l-2.93 0.149z" style="paint-order:stroke fill markers"/></g><path d="m177 145c-2.63-0.468-4.46-1.1-6.21-2.15-2.19-1.31-3.01-2.12-4-3.92-0.728-1.33-0.811-1.76-0.815-4.19-4e-3 -2.97 0.248-3.71 1.89-5.59 1.05-1.2 3.55-3.14 5.38-4.18 2.35-1.34 4.18-1.77 7.29-1.74 8.18 0.0809 12.5 3.53 12.1 9.71-0.115 1.79-0.334 2.52-1.39 4.61-1.65 3.27-4.24 5.93-6.68 6.86-1.97 0.751-5.25 1.01-7.55 0.605z" fill="#faa" style="paint-order:stroke fill markers"/><path d="m152 149c-5.39-1.33-8.22-3.81-8.97-7.84-0.397-2.12 0.0895-3.32 2.82-6.95l1.72-2.28v-4.53l1.07-0.352c0.589-0.194 2.17-0.424 3.51-0.512 2.98-0.196 6.09 0.51 9.61 2.18l2.33 1.11-0.452 1.24c-0.27 0.739-0.461 2.22-0.474 3.67-0.0262 2.88 0.56 4.84 2.02 6.75l0.989 1.3-1.22 1.58c-1.75 2.27-3.38 3.39-6.2 4.26-1.74 0.537-5.31 0.741-6.76 0.385zm8.39-13.3c1.1-0.926 1.37-2.1 0.763-3.37-0.839-1.77-2.82-2.14-4.17-0.789-1.18 1.18-1.18 2.87 0 4.04 1.06 1.06 2.24 1.1 3.41 0.113z" fill="#fff" style="paint-order:stroke fill markers"/></g></svg>
