<?xml version="1.0" encoding="UTF-8" standalone="no"?>
<svg
   id="svg145"
   version="1.1"
   viewBox="0 0 135.46666 135.46666"
   height="135.46666mm"
   width="135.46666mm"
   sodipodi:docname="mouse.svg"
   inkscape:version="1.1.1 (3bf5ae0d25, 2021-09-20)"
   xmlns:inkscape="http://www.inkscape.org/namespaces/inkscape"
   xmlns:sodipodi="http://sodipodi.sourceforge.net/DTD/sodipodi-0.dtd"
   xmlns="http://www.w3.org/2000/svg"
   xmlns:svg="http://www.w3.org/2000/svg"
   xmlns:rdf="http://www.w3.org/1999/02/22-rdf-syntax-ns#"
   xmlns:cc="http://creativecommons.org/ns#"
   xmlns:dc="http://purl.org/dc/elements/1.1/">
  <sodipodi:namedview
     id="namedview31"
     pagecolor="#ffffff"
     bordercolor="#666666"
     borderopacity="1.0"
     inkscape:pageshadow="2"
     inkscape:pageopacity="0.0"
     inkscape:pagecheckerboard="0"
     inkscape:document-units="mm"
     showgrid="false"
     fit-margin-top="0"
     fit-margin-left="0"
     fit-margin-right="0"
     fit-margin-bottom="0"
     inkscape:zoom="0.45307359"
     inkscape:cx="226.23256"
     inkscape:cy="325.55418"
     inkscape:window-width="1280"
     inkscape:window-height="763"
     inkscape:window-x="0"
     inkscape:window-y="0"
     inkscape:window-maximized="1"
     inkscape:current-layer="layer1" />
  <defs
     id="defs139" />
  <metadata
     id="metadata142">
    <rdf:RDF>
      <cc:Work
         rdf:about="">
        <dc:format>image/svg+xml</dc:format>
        <dc:type
           rdf:resource="http://purl.org/dc/dcmitype/StillImage" />
      </cc:Work>
    </rdf:RDF>
  </metadata>
  <g
     transform="translate(-63.656101,-104.45221)"
     id="layer1">
    <g
       id="g1595"
       transform="translate(1.3875761,-1.5866073)">
      <path
         id="path970-2-5"
         d="m 122.74992,232.36945 c -2.0557,-0.0798 -3.97846,-0.24107 -4.27283,-0.35834 -1.1832,-0.47134 -1.50577,-1.87443 -0.80619,-3.5065 0.89854,-2.09622 2.5927,-3.19251 6.54443,-4.23487 2.44665,-0.64538 2.58672,-0.71024 2.77701,-1.28597 0.16138,-0.48817 0.59086,-5.34154 0.60337,-6.81841 0.002,-0.30196 0.20463,-0.35355 1.38479,-0.35355 1.29599,0 1.39685,-0.033 1.62384,-0.53121 0.13311,-0.29214 0.21589,-0.55388 0.18395,-0.58162 -0.0319,-0.0277 -0.96721,-0.20316 -2.07839,-0.38979 -3.83168,-0.64355 -5.80673,-1.59294 -7.1645,-3.44394 -0.63753,-0.86911 -0.7959,-1.31522 -1.11215,-3.13283 -0.31737,-1.82397 -0.35075,-2.78155 -0.23957,-6.86912 0.0711,-2.61235 0.25623,-5.79523 0.41149,-7.07308 0.60886,-5.01115 2.00137,-10.03303 4.55895,-16.44118 0.57115,-1.43106 1.05711,-2.91254 1.07991,-3.29223 0.039,-0.64867 -0.0195,-0.7163 -0.96871,-1.12152 -2.52596,-1.07831 -5.57573,-3.49384 -6.38479,-5.05701 l -0.39276,-0.75883 1.53278,-1.8519 c 1.83887,-2.22171 2.27539,-2.96951 1.87977,-3.22022 -0.14937,-0.0947 -0.33178,-0.17353 -0.40535,-0.17523 -0.0736,-0.002 -0.99731,0.9832 -2.05275,2.18862 -2.30204,2.62923 -4.00214,3.89518 -6.48163,4.82651 -3.87421,1.45521 -9.53967,2.41955 -12.73656,2.16796 -3.02932,-0.23842 -6.350738,-1.69522 -8.459245,-3.71032 -2.677189,-2.55858 -4.348901,-5.20903 -5.71581,-9.06229 -1.20905,-3.40825 -1.343258,-4.91841 -0.594882,-6.69374 3.058214,-7.25478 10.346553,-11.83071 21.123187,-13.262 1.52504,-0.20256 2.49047,-0.22834 3.43455,-0.0917 0.72228,0.10449 1.3814,0.19182 1.46473,0.19405 0.0834,0.002 0.15154,0.32746 0.15154,0.72273 0,2.6168 1.8803,5.65942 4.20233,6.80002 1.13941,0.55969 1.55295,0.65858 2.6397,0.63118 2.41219,-0.0607 3.86142,-0.9465 5.52703,-3.37787 0.67661,-0.98766 0.83079,-1.39929 0.91443,-2.44126 l 0.10057,-1.25327 -1.69174,-0.82923 c -4.2027,-2.06 -8.39847,-2.9534 -13.61166,-2.89832 -6.37317,0.0674 -12.027814,1.39797 -17.245716,4.05823 -2.951888,1.50496 -4.378451,2.54558 -6.277834,4.57943 -0.78514,0.84073 -1.427532,1.3883 -1.427532,1.21681 0,-1.26205 3.98465,-12.48721 5.712915,-16.09384 1.942047,-4.05278 5.427856,-9.66506 7.278029,-11.71791 1.795594,-1.9923 3.621898,-2.82139 6.225108,-2.82607 1.82174,-0.003 2.90319,0.22879 5.70619,1.22444 3.6238,1.28721 6.27048,2.99034 8.61116,5.54126 2.52536,2.75221 4.51135,5.22804 6.34338,7.90797 1.40357,2.05319 1.82365,2.49674 2.36463,2.49674 0.34448,0 0.18859,-1.01753 -0.30518,-1.99194 -0.7308,-1.44216 -5.76073,-7.88248 -7.87572,-10.08409 l -1.02333,-1.06523 0.6037,-0.51318 c 1.14934,-0.977 4.6391,-2.5219 6.41476,-2.8398 5.02502,-0.89961 12.0863,-0.059 18.3824,2.18856 1.36874,0.48858 1.42816,0.71084 0.56674,2.11977 -1.18669,1.94096 -1.98458,5.48411 -1.45698,6.46995 0.21806,0.40743 1.97394,1.01251 2.22107,0.76538 0.14391,-0.14391 0.81136,3.15675 0.82876,4.09842 0.0175,0.94935 -0.35417,1.71014 -1.89705,3.88265 -2.26447,3.18855 -2.43405,3.60376 -2.43424,5.95998 -1.7e-4,2.35043 0.32198,3.4834 1.51566,5.33026 1.22822,1.9003 2.27122,2.77309 4.73987,3.96639 2.62698,1.26982 4.58298,1.75562 7.07849,1.75802 2.07758,0.002 4.52253,-0.62323 6.72808,-1.72051 1.45979,-0.72626 3.46346,-2.56779 4.38525,-4.03041 0.35867,-0.56909 0.75368,-0.95945 0.9711,-0.95966 0.20158,-2.1e-4 0.88343,0.23666 1.51524,0.52635 2.74574,1.25898 5.07864,1.93833 7.61379,2.21721 2.04793,0.22529 5.73753,0.10459 6.35237,-0.20782 0.28421,-0.14442 0.71841,-0.32473 0.96485,-0.40072 0.42848,-0.13212 0.43811,-0.10892 0.22012,0.52999 -0.28877,0.8463 -2.29975,4.216 -3.77472,6.32508 -1.33238,1.90519 -4.68365,5.75632 -6.51169,7.48292 -4.36377,4.12164 -9.81606,7.92543 -14.49257,10.1108 -2.95561,1.38113 -3.90217,1.58256 -7.34324,1.56252 -2.48559,-0.0144 -2.9866,0.0329 -3.08576,0.29128 -0.0651,0.16968 -0.0877,0.33915 -0.0503,0.37658 0.0374,0.0374 1.06236,0.21304 2.27762,0.39026 1.21527,0.17724 2.43561,0.38537 2.71186,0.46253 0.5586,0.15601 0.61078,0.34529 1.01118,3.66808 0.41099,3.41073 1.12574,5.67339 2.43565,7.71055 0.88804,1.38106 2.09026,4.12741 2.51752,5.75102 0.42843,1.62817 0.76777,7.18143 0.60208,9.85325 -0.16495,2.65976 -0.48803,4.01131 -1.4054,5.87893 -1.53703,3.12919 -3.51176,4.51015 -7.80696,5.45944 -1.26559,0.27973 -2.93747,0.68093 -3.71531,0.89161 -0.77782,0.21068 -1.94919,0.44423 -2.60302,0.51901 -0.85942,0.0983 -1.32124,0.26835 -1.66677,0.61392 -0.45816,0.45813 -0.47794,0.59773 -0.47685,3.36609 5.8e-4,1.5885 0.0922,3.21612 0.20355,3.61692 0.20228,0.72822 0.20348,0.72886 1.59645,0.85834 1.93033,0.1794 8.86726,1.62532 10.82592,2.25652 2.02077,0.65123 2.52543,1.15252 2.52543,2.50864 0,0.67449 -0.17338,1.30769 -0.56148,2.05058 -0.66122,1.26573 -1.68251,1.89437 -3.58325,2.20561 -1.3726,0.22476 -24.14415,0.2166 -29.99886,-0.0109 z m 15.07165,-22.99533 c 0.43337,-0.31829 0.98397,-0.79557 1.22356,-1.06067 0.60956,-0.67439 1.07963,-2.43088 1.07963,-4.03425 v -1.35758 l 0.64349,0.60111 c 0.82348,0.76923 1.86427,1.29429 2.91087,1.46849 1.55497,0.25882 3.96448,-1.29262 4.49987,-2.89727 0.64593,-1.9361 0.17458,-2.99666 -2.56194,-5.7644 -0.93999,-0.95073 -1.68597,-1.89061 -1.77172,-2.23225 -0.19573,-0.77988 0.16094,-2.4424 1.2362,-5.76196 1.17674,-3.63291 1.37452,-4.87163 1.20157,-7.52574 -0.0778,-1.19452 -0.20512,-2.17185 -0.28285,-2.17185 -0.0777,0 -0.31782,0.12904 -0.53351,0.28675 -0.35329,0.25834 -0.39452,0.56377 -0.41582,3.081 -0.0233,2.75775 -0.0356,2.82911 -0.93661,5.46212 -0.50214,1.46734 -1.07733,3.48093 -1.2782,4.47467 -0.49528,2.45024 -0.30315,3.01572 1.71977,5.0614 2.19448,2.21917 2.438,2.57858 2.438,3.59838 0,0.7422 -0.12464,1.00962 -0.82436,1.76874 -0.9103,0.98755 -1.89743,1.41892 -2.79563,1.22163 -0.33795,-0.0742 -1.20979,-0.72549 -2.0497,-1.53112 -0.80389,-0.77111 -1.5793,-1.40199 -1.72314,-1.40199 -0.63289,0 -0.89034,0.86342 -0.90193,3.02495 -0.007,1.16979 -0.11991,2.43647 -0.25254,2.81484 -0.50261,1.43387 -2.69361,2.47119 -3.8793,1.83662 -0.63482,-0.33974 -0.7539,-0.9717 -0.73856,-3.91932 0.007,-1.34413 -0.077,-2.7839 -0.18641,-3.19947 -0.27321,-1.03669 -0.8095,-1.13412 -3.14482,-0.57111 -1.58188,0.38135 -1.99072,0.41519 -2.59729,0.21501 -1.34566,-0.4441 -1.61772,-1.68355 -0.70055,-3.19169 0.51526,-0.84728 2.84773,-2.15892 4.74175,-2.66648 1.99018,-0.53333 2.24256,-0.67275 2.66251,-1.47101 0.3027,-0.57536 0.3526,-1.69622 0.43136,-9.69157 0.0544,-5.52766 0.0158,-9.04097 -0.0996,-9.04097 -0.10372,0 -0.34369,0.11364 -0.53323,0.25254 -0.30336,0.22231 -0.37977,1.11087 -0.63854,7.4247 -0.29244,7.13576 -0.44898,9.68787 -0.63459,10.34524 -0.0651,0.23075 -0.67796,0.52004 -1.85432,0.8754 -4.71827,1.4253 -7.0333,4.30218 -5.69185,7.07326 0.76156,1.57318 2.42175,2.05444 4.844,1.40431 1.8914,-0.5077 1.76981,-0.67008 1.85323,2.47492 0.0582,2.19519 0.15278,2.93873 0.45068,3.54445 0.53872,1.09537 1.71732,1.70288 3.37321,1.73877 0.72463,0.0157 1.1029,-0.10732 1.71727,-0.5586 z m 30.96598,-49.54669 c 1.60793,-0.56052 1.11771,-1.99908 -0.68122,-1.99908 -1.06324,0 -1.51526,0.30636 -1.51526,1.02704 0,0.49355 0.12425,0.66273 0.65662,0.89412 0.8088,0.35153 0.76179,0.34915 1.53986,0.0779 z m -29.03904,-23.5661 c 0.6195,-0.63894 1.67299,-1.89072 2.34109,-2.78175 0.66809,-0.89104 1.35716,-1.73827 1.53126,-1.88277 0.8485,-0.70418 0.53218,-3.05402 -0.4668,-3.4678 -1.14335,-0.4736 -2.1202,0.46162 -4.00388,3.83322 -1.29547,2.31876 -1.85175,4.15425 -1.4958,4.93549 0.36111,0.79253 0.85386,0.64279 2.09413,-0.63639 z"
         style="fill:#ac9393;fill-opacity:1;stroke:none;stroke-width:3.81794;stroke-linecap:butt;stroke-linejoin:miter;stroke-miterlimit:4;stroke-dasharray:none;stroke-dashoffset:10;stroke-opacity:1;paint-order:stroke fill markers" />
      <path
         id="path974-8-3"
         d="m 103.83759,208.1975 c -1.25582,-0.7954 -1.62369,-1.4705 -2.50977,-4.60565 -1.21205,-4.28848 -2.388142,-5.81135 -4.743688,-6.1423 -1.609816,-0.22616 -4.261833,0.41679 -6.611483,1.60289 -0.924368,0.46661 -3.120392,1.44741 -4.880045,2.17953 -2.94982,1.22728 -3.388811,1.33133 -5.627989,1.3339 -2.188251,0.002 -2.640652,-0.0971 -4.571477,-1.00684 -4.134903,-1.94816 -6.006977,-5.44362 -6.028549,-11.25626 -0.0098,-2.75545 0.389818,-4.54265 1.534162,-6.85401 1.645276,-3.32312 4.632645,-6.08182 8.381158,-7.73959 3.720499,-1.64539 9.499818,-0.31615 11.207186,2.57763 1.299057,2.20173 1.942679,5.97673 1.460182,8.56439 -0.664332,3.563 -3.504311,7.31198 -5.539065,7.31198 -0.777407,0 -1.137836,-0.18936 -1.631574,-0.85717 -0.853244,-1.15406 -1.433726,-1.08012 -2.646878,0.33718 -1.413013,1.65077 -2.391378,2.2302 -3.769497,2.2324 -4.616537,0.008 -5.085491,-8.08418 -0.708379,-12.22266 1.345914,-1.27253 3.033192,-2.04726 4.475623,-2.05505 1.496591,-0.008 3.298313,1.45465 3.975312,3.22732 0.425344,1.11373 0.429698,1.45112 0.04713,3.63987 -0.329651,1.88597 -0.348513,2.56822 -0.08653,3.12665 1.033058,2.20168 3.611758,-0.38897 4.612567,-4.63392 0.843501,-3.5777 0.420389,-5.82415 -1.499054,-7.95901 -2.196697,-2.44326 -4.257378,-3.10213 -7.553132,-2.41495 -2.453067,0.51147 -4.538542,1.69471 -6.990195,3.966 -3.246787,3.00791 -4.759813,7.46886 -4.124759,12.16119 0.409931,3.02896 1.581627,5.59472 2.986292,6.53941 3.230439,2.17258 7.194682,2.35355 11.188008,0.51082 1.254826,-0.57904 3.592634,-1.82814 5.195102,-2.77576 4.160591,-2.46034 5.424026,-2.89709 7.24881,-2.50575 2.393389,0.5133 3.889102,2.26204 5.405382,6.31987 0.72533,1.94109 1.67724,2.79224 3.12276,2.79224 0.57303,0 3.34311,-0.76975 6.15575,-1.71058 2.81265,-0.94081 5.14015,-1.68011 5.17221,-1.64288 0.0321,0.0372 0.10536,1.48172 0.16293,3.20997 l 0.1047,3.14226 -3.71433,0.93767 c -2.04288,0.51575 -4.74291,1.00739 -6.00007,1.0926 -1.96989,0.13348 -2.41191,0.075 -3.1988,-0.42339 z M 80.474304,193.16835 c 1.388045,-1.49051 2.760985,-4.15095 3.381203,-6.55195 0.533473,-2.06515 0.336551,-2.52313 -1.364187,-3.17265 -1.061671,-0.40546 -1.434434,-0.4276 -2.313515,-0.13748 -3.831079,1.26436 -6.119734,6.96432 -4.117978,10.25594 0.47999,0.78928 0.686567,0.88668 1.880607,0.88668 1.22113,0 1.448299,-0.1148 2.53387,-1.28054 z"
         style="fill:#ac9393;fill-opacity:1;stroke:none;stroke-width:5.39939;stroke-linecap:butt;stroke-linejoin:miter;stroke-miterlimit:4;stroke-dasharray:none;stroke-dashoffset:10;stroke-opacity:1;paint-order:stroke fill markers" />
      <path
         id="path976-9-5"
         d="m 158.39034,228.20789 c 0.0668,-1.54859 -0.008,-1.82838 -0.66292,-2.48359 -0.90402,-0.90429 -4.64463,-2.04461 -10.44062,-3.18284 l -4.10697,-0.80654 -7e-5,-2.8163 c -5e-5,-2.42095 0.0618,-2.79256 0.44081,-2.64715 0.24247,0.0931 1.41652,-0.0985 2.60896,-0.42561 2.49229,-0.68377 2.51059,-0.67321 2.79618,1.61265 0.12521,1.00218 0.39255,1.68163 0.81317,2.06674 1.01088,0.92559 2.95041,1.78025 4.41146,1.94397 6.6517,0.74529 8.04775,1.15873 9.87973,2.92577 1.20335,1.16073 1.90704,2.55389 1.90704,3.77555 0,1.08031 -1.06552,1.44367 -4.7896,1.63328 l -2.93245,0.1493 z"
         style="fill:#ac9393;fill-opacity:1;stroke:none;stroke-width:5.39939;stroke-linecap:butt;stroke-linejoin:miter;stroke-miterlimit:4;stroke-dasharray:none;stroke-dashoffset:10;stroke-opacity:1;paint-order:stroke fill markers" />
      <path
         id="path978-6-6"
         d="m 175.49886,146.43019 c -2.62839,-0.46803 -4.45843,-1.10265 -6.2069,-2.15244 -2.18999,-1.31486 -3.00949,-2.11898 -3.99671,-3.92175 -0.72754,-1.32855 -0.81052,-1.75568 -0.81458,-4.19353 -0.004,-2.96507 0.24847,-3.71272 1.89356,-5.58638 1.05199,-1.19814 3.55311,-3.14094 5.37725,-4.1769 2.35193,-1.3357 4.18454,-1.77426 7.28579,-1.74359 8.17628,0.0809 12.47306,3.53492 12.07688,9.70834 -0.11505,1.79269 -0.33381,2.51805 -1.38904,4.60604 -1.6526,3.26993 -4.23885,5.92515 -6.67747,6.85553 -1.96778,0.75076 -5.25139,1.01378 -7.54878,0.60468 z"
         style="fill:#ffaaaa;fill-opacity:1;stroke:none;stroke-width:5.39939;stroke-linecap:butt;stroke-linejoin:miter;stroke-miterlimit:4;stroke-dasharray:none;stroke-dashoffset:10;stroke-opacity:1;paint-order:stroke fill markers" />
      <path
         id="path980-0-2"
         d="m 150.75121,150.43179 c -5.38543,-1.32987 -8.21791,-3.80503 -8.97171,-7.83993 -0.39668,-2.12334 0.0895,-3.31956 2.82318,-6.94755 l 1.71991,-2.28249 v -2.26607 -2.26607 l 1.07144,-0.35219 c 0.5893,-0.1937 2.16723,-0.4243 3.50653,-0.51245 2.97921,-0.19605 6.0896,0.51025 9.6117,2.18263 l 2.3324,1.10747 -0.45226,1.23936 c -0.2698,0.73935 -0.46118,2.21915 -0.47437,3.66797 -0.0262,2.88066 0.55976,4.83929 2.02032,6.75275 l 0.98856,1.29509 -1.21636,1.57665 c -1.75012,2.26847 -3.37809,3.38646 -6.20281,4.25973 -1.73865,0.53749 -5.31412,0.7413 -6.75653,0.3851 z m 8.38575,-13.27704 c 1.10009,-0.92566 1.36578,-2.0981 0.76322,-3.36791 -0.83945,-1.76903 -2.81692,-2.14321 -4.17088,-0.78926 -1.17607,1.17607 -1.17607,2.86794 0,4.04401 1.05772,1.05772 2.23851,1.09694 3.40766,0.11316 z"
         style="fill:#ffffff;fill-opacity:1;stroke:none;stroke-width:5.39939;stroke-linecap:butt;stroke-linejoin:miter;stroke-miterlimit:4;stroke-dasharray:none;stroke-dashoffset:10;stroke-opacity:1;paint-order:stroke fill markers" />
    </g>
  </g>
</svg>
